<?xml version="1.0" standalone="no"?>
<!DOCTYPE svg PUBLIC "-//W3C//DTD SVG 20010904//EN"
 "http://www.w3.org/TR/2001/REC-SVG-20010904/DTD/svg10.dtd">
<svg version="1.0" xmlns="http://www.w3.org/2000/svg"
 width="512.000000pt" height="512.000000pt" viewBox="0 0 512.000000 512.000000"
 preserveAspectRatio="xMidYMid meet">
<metadata>
Created by potrace 1.14, written by Peter Selinger 2001-2017
</metadata>
<g transform="translate(0.000000,512.000000) scale(0.100000,-0.100000)"
fill="#000000" stroke="none">
<path d="M2369 5115 c-2 -2 -36 -6 -74 -9 -39 -3 -80 -8 -92 -10 -11 -3 -43
-8 -70 -12 -72 -10 -75 -11 -202 -43 -551 -142 -1012 -440 -1377 -891 -234
-289 -430 -701 -499 -1051 -14 -70 -36 -214 -44 -284 -9 -78 -7 -490 2 -530 3
-11 9 -49 13 -85 4 -36 9 -67 9 -70 1 -3 5 -23 9 -45 16 -81 68 -281 82 -312
8 -17 14 -36 14 -41 0 -23 95 -245 150 -349 71 -136 127 -223 237 -370 83
-112 271 -310 372 -394 29 -24 59 -49 65 -54 75 -69 327 -226 486 -302 141
-68 389 -158 487 -178 10 -2 49 -10 88 -19 38 -9 85 -19 105 -21 19 -3 44 -7
56 -9 67 -13 203 -21 379 -21 258 0 319 7 603 66 305 63 717 267 1002 495 103
83 292 271 376 374 279 343 465 752 539 1184 24 140 30 226 30 431 0 240 -12
366 -51 533 -9 37 -18 76 -20 88 -21 110 -133 405 -211 554 -308 587 -828
1031 -1458 1246 -106 37 -310 89 -385 98 -25 4 -56 8 -70 11 -76 13 -135 17
-331 20 -119 2 -218 2 -220 0z"/>
</g>
</svg>
